# This file uses centimeters as units for non-parametric coordinates.

mtllib Pfosten.mtl
v 3.607056 0.000000 -3.607063
v 0.000000 0.000000 -5.101181
v -3.607056 0.000000 -3.607063
v -5.101189 0.000000 0.000000
v -3.607056 0.000000 3.607056
v 0.000000 0.000000 5.101204
v 3.607056 0.000000 3.607056
v 5.101189 0.000000 0.000000
v 3.607056 93.643257 -3.607063
v 0.000000 93.643257 -5.101181
v -3.607056 93.643257 -3.607063
v -5.101189 93.643257 0.000000
v -3.607056 93.643257 3.607056
v 0.000000 93.643257 5.101204
v 3.607056 93.643257 3.607056
v 5.101189 93.643257 0.000000
v 0.000000 0.000000 0.000000
v 0.000000 93.643257 0.000000
vt 0.872012 0.989247
vt 0.831216 0.989247
vt 0.831216 0.010753
vt 0.872012 0.010753
vt 0.790420 0.989247
vt 0.790420 0.010753
vt 0.749623 0.989247
vt 0.749623 0.010753
vt 0.708827 0.989247
vt 0.708827 0.010753
vt 0.668031 0.989247
vt 0.668031 0.010753
vt 0.627234 0.989247
vt 0.627234 0.010753
vt 0.586438 0.989247
vt 0.586438 0.010753
vt 0.545642 0.989247
vt 0.545642 0.010753
vt 0.348242 0.518764
vt 0.480362 0.651455
vt 0.254131 0.744595
vt 0.160992 0.518363
vt 0.028300 0.650483
vt 0.027899 0.837734
vt 0.160019 0.970426
vt 0.347269 0.970826
vt 0.479961 0.838706
vt 0.481029 0.341942
vt 0.349871 0.475584
vt 0.254131 0.250439
vt 0.162628 0.477338
vt 0.028985 0.346179
vt 0.027232 0.158937
vt 0.158390 0.025293
vt 0.345633 0.023541
vt 0.479276 0.154699
vn 0.382689 0.000000 -0.923877
vn 0.382689 0.000000 -0.923877
vn 0.382689 0.000000 -0.923877
vn 0.382689 0.000000 -0.923877
vn -0.382689 0.000000 -0.923877
vn -0.382689 0.000000 -0.923877
vn -0.923876 0.000000 -0.382692
vn -0.923876 0.000000 -0.382692
vn -0.923876 0.000000 0.382693
vn -0.923876 0.000000 0.382693
vn -0.382696 0.000000 0.923874
vn -0.382696 0.000000 0.923874
vn 0.382696 0.000000 0.923874
vn 0.382696 0.000000 0.923874
vn 0.923876 0.000000 0.382693
vn 0.923876 0.000000 0.382693
vn 0.000000 -1.000000 0.000000
vn 0.000000 -1.000000 0.000000
vn 0.000000 -1.000000 0.000000
vn 0.000000 -1.000000 0.000000
vn 0.000000 -1.000000 0.000000
vn 0.000000 -1.000000 0.000000
vn 0.000000 -1.000000 0.000000
vn 0.000000 -1.000000 0.000000
vn 0.000000 -1.000000 0.000000
vn 0.000000 -1.000000 0.000000
vn 0.000000 -1.000000 0.000000
vn 0.000000 -1.000000 0.000000
vn 0.000000 -1.000000 0.000000
vn 0.000000 -1.000000 0.000000
vn 0.000000 -1.000000 0.000000
vn 0.000000 -1.000000 0.000000
vn 0.000000 -1.000000 0.000000
vn 0.000000 -1.000000 0.000000
vn 0.000000 -1.000000 0.000000
vn 0.000000 -1.000000 0.000000
vn 0.000000 -1.000000 0.000000
vn 0.000000 -1.000000 0.000000
vn 0.000000 -1.000000 0.000000
vn 0.000000 -1.000000 0.000000
vn 0.000000 1.000000 -0.000002
vn 0.000000 1.000000 0.000000
vn 0.000000 1.000000 0.000000
vn 0.000000 1.000000 0.000000
vn 0.000000 1.000000 0.000000
vn 0.000000 1.000000 0.000000
vn 0.000000 1.000000 0.000000
vn 0.000000 1.000000 0.000002
vn 0.000000 1.000000 0.000000
vn 0.000000 1.000000 0.000002
vn 0.000000 1.000000 0.000002
vn 0.000000 1.000000 0.000000
vn 0.000000 1.000000 0.000002
vn 0.000000 1.000000 0.000000
vn 0.000000 1.000000 0.000000
vn 0.000000 1.000000 0.000000
vn 0.000000 1.000000 0.000000
vn 0.000000 1.000000 0.000000
vn 0.000000 1.000000 0.000000
vn 0.000000 1.000000 -0.000002
vn 0.000000 1.000000 0.000000
vn 0.000000 1.000000 -0.000002
vn 0.000000 1.000000 -0.000002
vn 0.000000 1.000000 0.000000
s 1
usemtl Pfosten:pCylinder2SG
f 1/1/1 2/2/2 10/3/3 9/4/4
f 2/2/2 3/5/5 11/6/6 10/3/3
f 3/5/5 4/7/7 12/8/8 11/6/6
f 4/7/7 5/9/9 13/10/10 12/8/8
f 5/9/9 6/11/11 14/12/12 13/10/10
f 6/11/11 7/13/13 15/14/14 14/12/12
f 7/13/13 8/15/15 16/16/16 15/14/14
f 8/15/15 1/17/1 9/18/4 16/16/16
s off
f 2/19/17 1/20/18 17/21/19
f 3/22/20 2/19/21 17/21/22
f 4/23/23 3/22/24 17/21/25
f 5/24/26 4/23/27 17/21/28
f 6/25/29 5/24/30 17/21/31
f 7/26/32 6/25/33 17/21/34
f 8/27/35 7/26/36 17/21/37
f 1/20/38 8/27/39 17/21/40
f 9/28/41 10/29/42 18/30/43
f 10/29/44 11/31/45 18/30/46
f 11/31/47 12/32/48 18/30/49
f 12/32/50 13/33/51 18/30/52
f 13/33/53 14/34/54 18/30/55
f 14/34/56 15/35/57 18/30/58
f 15/35/59 16/36/60 18/30/61
f 16/36/62 9/28/63 18/30/64
