# This file uses centimeters as units for non-parametric coordinates.

mtllib Muelltonne_Lang.mtl
g default
v -36.046486 10.635946 -64.044563
v -35.184975 4.091351 -64.044563
v -29.947943 0.072962 -64.044563
v -23.403341 0.934474 -64.044563
v -19.384954 6.171504 -64.044563
v -20.246466 12.716099 -64.044563
v -25.483496 16.734509 -64.044563
v -32.028099 15.872976 -64.044563
v -36.046486 10.635946 -58.522133
v -35.184975 4.091351 -58.522133
v -29.947943 0.072962 -58.522133
v -23.403341 0.934474 -58.522133
v -19.384954 6.171504 -58.522133
v -20.246466 12.716099 -58.522133
v -25.483496 16.734509 -58.522133
v -32.028099 15.872976 -58.522133
v -27.715719 8.403725 -64.044563
v -27.715719 8.403725 -58.522133
v 29.563334 1.042780 59.051079
v 29.554354 1.042780 -58.915688
v 33.736732 90.093735 61.419884
v 33.727760 90.093735 -61.284492
v -33.604469 90.093735 61.421043
v -33.613457 90.093735 -61.283302
v -29.169043 1.042780 59.052269
v -29.178032 1.042780 -58.914528
v 33.736732 98.594917 61.419884
v 33.727760 98.594917 -61.284492
v -33.613457 98.594917 -61.283302
v -33.604469 98.594917 61.421043
v 37.855415 94.062447 64.335594
v 37.846428 94.062447 -64.200233
v 37.846428 96.949135 -64.200233
v 37.855415 96.949135 64.335594
v -37.732140 94.062447 -64.199043
v -37.732140 96.949135 -64.199043
v -37.723152 94.062447 64.336784
v -37.723152 96.949135 64.336784
v 32.595039 99.095627 60.481224
v 32.586067 99.095627 -60.345863
v -32.471764 99.095627 -60.344673
v -32.462776 99.095627 60.482414
v 30.031227 102.286362 58.373436
v 30.022249 102.286362 -58.238075
v -29.907949 102.286362 -58.236916
v -29.898964 102.286362 58.374596
v 16.739115 103.179688 50.715721
v 16.730127 103.179688 -50.580330
v -16.615835 103.179688 -50.579140
v -16.606848 103.179688 50.716881
v -36.037498 10.635946 58.659782
v -35.175987 4.091351 58.659782
v -29.938955 0.072962 58.659782
v -23.394354 0.934474 58.659782
v -19.375969 6.171504 58.659782
v -20.237478 12.716099 58.659782
v -25.474508 16.734509 58.659782
v -32.019112 15.872976 58.659782
v -36.037498 10.635946 64.182304
v -35.175987 4.091351 64.182304
v -29.938955 0.072962 64.182304
v -23.394354 0.934474 64.182304
v -19.375969 6.171504 64.182304
v -20.237478 12.716099 64.182304
v -25.474508 16.734509 64.182304
v -32.019112 15.872976 64.182304
v -27.706732 8.403725 58.659782
v -27.706732 8.403725 64.182304
vt 0.178119 0.074498
vt 0.158229 0.074548
vt 0.158187 0.057908
vt 0.178077 0.057857
vt 0.138338 0.074598
vt 0.138296 0.057958
vt 0.118447 0.074648
vt 0.118405 0.058008
vt 0.098556 0.074699
vt 0.098514 0.058058
vt 0.078666 0.074749
vt 0.078624 0.058108
vt 0.058775 0.074799
vt 0.058733 0.058159
vt 0.038884 0.074849
vt 0.038842 0.058209
vt 0.018993 0.074900
vt 0.018951 0.058259
vt 0.168235 0.098533
vt 0.148344 0.098583
vt 0.128453 0.098634
vt 0.108562 0.098684
vt 0.088672 0.098734
vt 0.068781 0.098784
vt 0.048890 0.098834
vt 0.028999 0.098885
vt 0.168072 0.033872
vt 0.148180 0.033922
vt 0.128290 0.033973
vt 0.108399 0.034023
vt 0.088509 0.034073
vt 0.068617 0.034123
vt 0.048727 0.034173
vt 0.028836 0.034224
vt 0.216590 0.191385
vt 0.577798 0.191141
vt 0.585235 0.464104
vt 0.209521 0.464359
vt 0.844851 0.577058
vt 0.537469 0.871967
vt 0.437140 0.770557
vt 0.745579 0.473501
vt 0.392358 0.760767
vt 0.022622 0.762850
vt 0.028248 0.494147
vt 0.383708 0.492144
vt 0.216479 0.011550
vt 0.577686 0.011306
vt 0.757141 0.177836
vt 0.790865 0.448849
vt 0.037230 0.178322
vt 0.003871 0.449380
vt 0.942426 0.635273
vt 0.588014 0.971096
vt 0.583222 0.960265
vt 0.931844 0.629979
vt 0.318322 0.915192
vt 0.319801 0.902299
vt 0.013933 0.780134
vt 0.401240 0.777953
vt 0.401289 0.786651
vt 0.013982 0.788832
vt 0.897841 0.361013
vt 0.885014 0.361792
vt 0.957467 0.642506
vt 0.593838 0.987153
vt 0.574956 0.942512
vt 0.914415 0.620523
vt 0.332081 0.940034
vt 0.336621 0.890622
vt 0.392580 0.800066
vt 0.022844 0.802147
vt 0.921170 0.375444
vt 0.872616 0.378579
vt 0.572942 0.937090
vt 0.909065 0.618231
vt 0.341389 0.886769
vt 0.389773 0.803838
vt 0.025693 0.805887
vt 0.868554 0.383158
vt 0.566479 0.919419
vt 0.891647 0.610939
vt 0.353498 0.871717
vt 0.383491 0.816208
vt 0.032114 0.818185
vt 0.852958 0.394322
vt 0.408955 0.848466
vt 0.360646 0.856482
vt 0.055418 0.858196
vt 0.826534 0.449502
vt 0.021001 0.131703
vt 0.040892 0.131639
vt 0.040945 0.148280
vt 0.021054 0.148344
vt 0.060782 0.131575
vt 0.060836 0.148216
vt 0.080673 0.131511
vt 0.080726 0.148152
vt 0.100564 0.131448
vt 0.100617 0.148088
vt 0.120454 0.131384
vt 0.120508 0.148025
vt 0.140345 0.131320
vt 0.140398 0.147961
vt 0.160236 0.131256
vt 0.160289 0.147897
vt 0.180126 0.131192
vt 0.180180 0.147833
vt 0.030869 0.107661
vt 0.050760 0.107597
vt 0.070650 0.107533
vt 0.090542 0.107469
vt 0.110432 0.107405
vt 0.130323 0.107342
vt 0.150213 0.107278
vt 0.170105 0.107214
vt 0.031076 0.172322
vt 0.050968 0.172258
vt 0.070858 0.172194
vt 0.090749 0.172130
vt 0.110639 0.172067
vt 0.130530 0.172003
vt 0.150420 0.171939
vt 0.170312 0.171875
vn -0.991447 -0.130511 0.000000
vn -0.991447 -0.130511 0.000000
vn -0.991447 -0.130511 0.000000
vn -0.991447 -0.130511 0.000000
vn -0.608749 -0.793363 0.000000
vn -0.608749 -0.793363 0.000000
vn -0.608749 -0.793363 0.000000
vn -0.608749 -0.793363 0.000000
vn 0.130511 -0.991447 0.000000
vn 0.130511 -0.991447 0.000000
vn 0.130511 -0.991447 0.000000
vn 0.130511 -0.991447 0.000000
vn 0.793362 -0.608750 0.000000
vn 0.793362 -0.608750 0.000000
vn 0.793362 -0.608750 0.000000
vn 0.793362 -0.608750 0.000000
vn 0.991447 0.130512 0.000000
vn 0.991447 0.130512 0.000000
vn 0.991447 0.130512 0.000000
vn 0.991447 0.130512 0.000000
vn 0.608752 0.793361 0.000000
vn 0.608752 0.793361 0.000000
vn 0.608752 0.793361 0.000000
vn 0.608752 0.793361 0.000000
vn -0.130514 0.991447 0.000000
vn -0.130514 0.991447 0.000000
vn -0.130514 0.991447 0.000000
vn -0.130514 0.991447 0.000000
vn -0.793363 0.608749 0.000000
vn -0.793363 0.608749 0.000000
vn -0.793363 0.608749 0.000000
vn -0.793363 0.608749 0.000000
vn -0.000000 0.000000 -1.000000
vn -0.000000 0.000000 -1.000000
vn -0.000000 0.000000 -1.000000
vn -0.000000 0.000000 -1.000000
vn -0.000000 0.000000 -1.000000
vn -0.000000 0.000000 -1.000000
vn -0.000000 0.000000 -1.000000
vn -0.000000 0.000000 -1.000000
vn -0.000000 0.000000 -1.000000
vn -0.000000 0.000000 -1.000000
vn -0.000000 0.000000 -1.000000
vn -0.000000 0.000000 -1.000000
vn -0.000000 0.000000 -1.000000
vn -0.000000 0.000000 -1.000000
vn -0.000000 0.000000 -1.000000
vn -0.000000 0.000000 -1.000000
vn -0.000000 0.000000 -1.000000
vn -0.000000 0.000000 -1.000000
vn -0.000000 0.000000 -1.000000
vn -0.000000 0.000000 -1.000000
vn -0.000000 0.000000 -1.000000
vn -0.000000 0.000000 -1.000000
vn -0.000000 0.000000 -1.000000
vn -0.000000 0.000000 -1.000000
vn 0.000000 0.000000 1.000000
vn 0.000000 0.000000 1.000000
vn 0.000000 0.000000 1.000000
vn 0.000000 0.000000 1.000000
vn 0.000000 0.000000 1.000000
vn 0.000000 0.000000 1.000000
vn 0.000000 0.000000 1.000000
vn 0.000000 0.000000 1.000000
vn 0.000000 0.000000 1.000000
vn 0.000000 0.000000 1.000000
vn 0.000000 0.000000 1.000000
vn 0.000000 0.000000 1.000000
vn 0.000000 0.000000 1.000000
vn 0.000000 0.000000 1.000000
vn 0.000000 0.000000 1.000000
vn 0.000000 0.000000 1.000000
vn 0.000000 0.000000 1.000000
vn 0.000000 0.000000 1.000000
vn 0.000000 0.000000 1.000000
vn 0.000000 0.000000 1.000000
vn 0.000000 0.000000 1.000000
vn 0.000000 0.000000 1.000000
vn 0.000000 0.000000 1.000000
vn 0.000000 0.000000 1.000000
vn 0.998904 -0.046814 -0.000075
vn 0.998904 -0.046814 -0.000075
vn 0.998904 -0.046814 -0.000075
vn 0.998904 -0.046814 -0.000075
vn 0.000000 1.000000 0.000000
vn 0.000000 1.000000 0.000000
vn 0.000000 1.000000 0.000000
vn 0.000000 1.000000 0.000000
vn -0.998762 -0.049746 0.000075
vn -0.998762 -0.049746 0.000075
vn -0.998762 -0.049746 0.000075
vn -0.998762 -0.049746 0.000075
vn 0.000000 -1.000000 0.000000
vn 0.000000 -1.000000 0.000000
vn 0.000000 -1.000000 0.000000
vn 0.000000 -1.000000 0.000000
vn -0.000019 -0.026591 -0.999646
vn -0.000019 -0.026591 -0.999646
vn -0.000019 -0.026591 -0.999646
vn -0.000019 -0.026591 -0.999646
vn 0.000019 -0.026591 0.999646
vn 0.000019 -0.026591 0.999646
vn 0.000019 -0.026591 0.999646
vn 0.000019 -0.026591 0.999646
vn 1.000000 0.000000 -0.000070
vn 1.000000 0.000000 -0.000070
vn 1.000000 0.000000 -0.000070
vn 1.000000 0.000000 -0.000070
vn -0.000016 0.000000 -1.000000
vn -0.000016 0.000000 -1.000000
vn -0.000016 0.000000 -1.000000
vn -0.000016 0.000000 -1.000000
vn -1.000000 0.000000 0.000070
vn -1.000000 0.000000 0.000070
vn -1.000000 0.000000 0.000070
vn -1.000000 0.000000 0.000070
vn 0.000016 0.000000 1.000000
vn 0.000016 0.000000 1.000000
vn 0.000016 0.000000 1.000000
vn 0.000016 0.000000 1.000000
vn 0.693876 -0.720094 -0.000050
vn 0.693876 -0.720094 -0.000050
vn 0.693876 -0.720094 -0.000050
vn 0.693876 -0.720094 -0.000050
vn 0.371063 0.928608 -0.000027
vn 0.371063 0.928608 -0.000027
vn 0.371063 0.928608 -0.000027
vn 0.371063 0.928608 -0.000027
vn -0.000013 -0.592070 -0.805887
vn -0.000013 -0.592070 -0.805887
vn -0.000013 -0.592070 -0.805887
vn -0.000013 -0.592070 -0.805887
vn -0.000008 0.870850 -0.491549
vn -0.000008 0.870850 -0.491549
vn -0.000008 0.870850 -0.491549
vn -0.000008 0.870850 -0.491549
vn -0.693875 -0.720096 0.000050
vn -0.693875 -0.720096 0.000050
vn -0.693875 -0.720096 0.000050
vn -0.693875 -0.720096 0.000050
vn -0.371062 0.928608 0.000027
vn -0.371062 0.928608 0.000027
vn -0.371062 0.928608 0.000027
vn -0.371062 0.928608 0.000027
vn 0.000013 -0.592068 0.805888
vn 0.000013 -0.592068 0.805888
vn 0.000013 -0.592068 0.805888
vn 0.000013 -0.592068 0.805888
vn 0.000008 0.870849 0.491551
vn 0.000008 0.870849 0.491551
vn 0.000008 0.870849 0.491551
vn 0.000008 0.870849 0.491551
vn 0.401638 0.915798 -0.000030
vn 0.401638 0.915798 -0.000030
vn 0.401638 0.915798 -0.000030
vn 0.401638 0.915798 -0.000030
vn -0.000008 0.882312 -0.470666
vn -0.000008 0.882312 -0.470665
vn -0.000008 0.882312 -0.470665
vn -0.000008 0.882312 -0.470665
vn -0.401640 0.915798 0.000030
vn -0.401640 0.915798 0.000030
vn -0.401640 0.915798 0.000030
vn -0.401640 0.915798 0.000030
vn 0.000008 0.882315 0.470660
vn 0.000008 0.882315 0.470660
vn 0.000008 0.882315 0.470660
vn 0.000008 0.882315 0.470660
vn 0.779529 0.626366 -0.000059
vn 0.779529 0.626366 -0.000059
vn 0.779529 0.626366 -0.000059
vn 0.779529 0.626366 -0.000059
vn -0.000016 0.551186 -0.834382
vn -0.000016 0.551186 -0.834382
vn -0.000016 0.551186 -0.834382
vn -0.000016 0.551186 -0.834382
vn -0.779529 0.626366 0.000059
vn -0.779529 0.626366 0.000059
vn -0.779529 0.626366 0.000059
vn -0.779529 0.626366 0.000059
vn 0.000016 0.551192 0.834378
vn 0.000016 0.551192 0.834378
vn 0.000016 0.551192 0.834379
vn 0.000016 0.551192 0.834379
vn 0.067056 0.997749 -0.000006
vn 0.067056 0.997749 -0.000006
vn 0.067056 0.997749 -0.000006
vn 0.067056 0.997749 -0.000006
vn -0.000003 0.993264 -0.115870
vn -0.000003 0.993264 -0.115870
vn -0.000003 0.993264 -0.115870
vn -0.000003 0.993264 -0.115870
vn -0.067056 0.997749 0.000006
vn -0.067056 0.997749 0.000006
vn -0.067056 0.997749 0.000006
vn -0.067056 0.997749 0.000006
vn 0.000003 0.993264 0.115871
vn 0.000003 0.993264 0.115871
vn 0.000003 0.993264 0.115871
vn 0.000003 0.993264 0.115871
vn -0.991447 -0.130511 0.000000
vn -0.991447 -0.130511 0.000000
vn -0.991447 -0.130511 0.000000
vn -0.991447 -0.130511 0.000000
vn -0.608749 -0.793363 0.000000
vn -0.608749 -0.793363 0.000000
vn -0.608749 -0.793363 0.000000
vn -0.608749 -0.793363 0.000000
vn 0.130511 -0.991447 0.000000
vn 0.130511 -0.991447 0.000000
vn 0.130511 -0.991447 0.000000
vn 0.130511 -0.991447 0.000000
vn 0.793363 -0.608749 0.000000
vn 0.793363 -0.608749 0.000000
vn 0.793363 -0.608749 0.000000
vn 0.793363 -0.608749 0.000000
vn 0.991447 0.130511 0.000000
vn 0.991447 0.130511 0.000000
vn 0.991447 0.130511 0.000000
vn 0.991447 0.130511 0.000000
vn 0.608752 0.793361 0.000000
vn 0.608752 0.793361 0.000000
vn 0.608752 0.793361 0.000000
vn 0.608752 0.793361 0.000000
vn -0.130514 0.991447 0.000000
vn -0.130514 0.991447 0.000000
vn -0.130514 0.991447 0.000000
vn -0.130514 0.991447 0.000000
vn -0.793363 0.608749 0.000000
vn -0.793363 0.608749 0.000000
vn -0.793363 0.608749 0.000000
vn -0.793363 0.608749 0.000000
vn -0.000001 0.000000 -1.000000
vn 0.000000 0.000000 -1.000000
vn -0.000000 0.000000 -1.000000
vn -0.000000 0.000000 -1.000000
vn -0.000001 0.000000 -1.000000
vn -0.000000 0.000000 -1.000000
vn 0.000001 0.000000 -1.000000
vn -0.000000 0.000000 -1.000000
vn -0.000000 0.000000 -1.000000
vn -0.000001 0.000000 -1.000000
vn 0.000001 0.000000 -1.000000
vn -0.000000 0.000000 -1.000000
vn -0.000001 0.000000 -1.000000
vn -0.000001 0.000000 -1.000000
vn -0.000000 0.000000 -1.000000
vn -0.000000 0.000000 -1.000000
vn -0.000001 0.000000 -1.000000
vn -0.000000 0.000000 -1.000000
vn 0.000000 0.000000 -1.000000
vn -0.000000 0.000000 -1.000000
vn -0.000000 0.000000 -1.000000
vn 0.000000 0.000000 -1.000000
vn 0.000000 0.000000 -1.000000
vn -0.000000 0.000000 -1.000000
vn 0.000000 0.000000 1.000000
vn 0.000000 0.000000 1.000000
vn 0.000000 0.000000 1.000000
vn 0.000000 0.000000 1.000000
vn 0.000000 0.000000 1.000000
vn 0.000000 0.000000 1.000000
vn 0.000000 0.000000 1.000000
vn 0.000000 0.000000 1.000000
vn 0.000000 0.000000 1.000000
vn 0.000000 0.000000 1.000000
vn 0.000000 0.000000 1.000000
vn 0.000000 0.000000 1.000000
vn 0.000000 0.000000 1.000000
vn -0.000001 0.000000 1.000000
vn 0.000000 0.000000 1.000000
vn -0.000001 0.000000 1.000000
vn -0.000001 0.000000 1.000000
vn 0.000000 0.000000 1.000000
vn -0.000001 0.000000 1.000000
vn 0.000000 0.000000 1.000000
vn 0.000000 0.000000 1.000000
vn 0.000000 0.000000 1.000000
vn 0.000000 0.000000 1.000000
vn 0.000000 0.000000 1.000000
s off
g Muelltonne_Lang1
usemtl Muelltonne_Lang:lambert17SG
f 1/1/1 2/2/2 10/3/3 9/4/4
f 2/2/5 3/5/6 11/6/7 10/3/8
f 3/5/9 4/7/10 12/8/11 11/6/12
f 4/7/13 5/9/14 13/10/15 12/8/16
f 5/9/17 6/11/18 14/12/19 13/10/20
f 6/11/21 7/13/22 15/14/23 14/12/24
f 7/13/25 8/15/26 16/16/27 15/14/28
f 8/15/29 1/17/30 9/18/31 16/16/32
f 2/2/33 1/1/34 17/19/35
f 3/5/36 2/2/37 17/20/38
f 4/7/39 3/5/40 17/21/41
f 5/9/42 4/7/43 17/22/44
f 6/11/45 5/9/46 17/23/47
f 7/13/48 6/11/49 17/24/50
f 8/15/51 7/13/52 17/25/53
f 1/17/54 8/15/55 17/26/56
f 9/4/57 10/3/58 18/27/59
f 10/3/60 11/6/61 18/28/62
f 11/6/63 12/8/64 18/29/65
f 12/8/66 13/10/67 18/30/68
f 13/10/69 14/12/70 18/31/71
f 14/12/72 15/14/73 18/32/74
f 15/14/75 16/16/76 18/33/77
f 16/16/78 9/18/79 18/34/80
usemtl Muelltonne_Lang:lambert18SG
f 19/35/81 20/36/82 22/37/83 21/38/84
f 47/39/85 48/40/86 49/41/87 50/42/88
f 23/43/89 24/44/90 26/45/91 25/46/92
f 25/47/93 26/48/94 20/36/95 19/35/96
f 20/36/97 26/49/98 24/50/99 22/37/100
f 25/51/101 19/35/102 21/38/103 23/52/104
f 31/53/105 32/54/106 33/55/107 34/56/108
f 32/54/109 35/57/110 36/58/111 33/55/112
f 35/59/113 37/60/114 38/61/115 36/62/116
f 37/63/117 31/53/118 34/56/119 38/64/120
f 21/65/121 22/66/122 32/54/123 31/53/124
f 28/67/125 27/68/126 34/56/127 33/55/128
f 22/66/129 24/69/130 35/57/131 32/54/132
f 29/70/133 28/67/134 33/55/135 36/58/136
f 24/44/137 23/43/138 37/60/139 35/59/140
f 30/71/141 29/72/142 36/62/143 38/61/144
f 23/73/145 21/65/146 31/53/147 37/63/148
f 27/68/149 30/74/150 38/64/151 34/56/152
f 27/68/153 28/67/154 40/75/155 39/76/156
f 28/67/157 29/70/158 41/77/159 40/75/160
f 29/72/161 30/71/162 42/78/163 41/79/164
f 30/74/165 27/68/166 39/76/167 42/80/168
f 39/76/169 40/75/170 44/81/171 43/82/172
f 40/75/173 41/77/174 45/83/175 44/81/176
f 41/79/177 42/78/178 46/84/179 45/85/180
f 42/80/181 39/76/182 43/82/183 46/86/184
f 43/82/185 44/81/186 48/40/187 47/39/188
f 44/81/189 45/83/190 49/87/191 48/40/192
f 45/85/193 46/84/194 50/88/195 49/89/196
f 46/86/197 43/82/198 47/39/199 50/90/200
usemtl Muelltonne_Lang:lambert17SG
f 51/91/201 52/92/202 60/93/203 59/94/204
f 52/92/205 53/95/206 61/96/207 60/93/208
f 53/95/209 54/97/210 62/98/211 61/96/212
f 54/97/213 55/99/214 63/100/215 62/98/216
f 55/99/217 56/101/218 64/102/219 63/100/220
f 56/101/221 57/103/222 65/104/223 64/102/224
f 57/103/225 58/105/226 66/106/227 65/104/228
f 58/105/229 51/107/230 59/108/231 66/106/232
f 52/92/233 51/91/234 67/109/235
f 53/95/236 52/92/237 67/110/238
f 54/97/239 53/95/240 67/111/241
f 55/99/242 54/97/243 67/112/244
f 56/101/245 55/99/246 67/113/247
f 57/103/248 56/101/249 67/114/250
f 58/105/251 57/103/252 67/115/253
f 51/107/254 58/105/255 67/116/256
f 59/94/257 60/93/258 68/117/259
f 60/93/260 61/96/261 68/118/262
f 61/96/263 62/98/264 68/119/265
f 62/98/266 63/100/267 68/120/268
f 63/100/269 64/102/270 68/121/271
f 64/102/272 65/104/273 68/122/274
f 65/104/275 66/106/276 68/123/277
f 66/106/278 59/108/279 68/124/280
