# This file uses centimeters as units for non-parametric coordinates.

mtllib Nachbarhaus_2_noMat.mtl
v -121.481377 -13.710823 271.095551
v -121.481255 -13.710823 -270.818573
v 96.560524 -13.710823 271.095551
v 96.560524 -13.710823 -270.818665
v -121.481377 235.076324 271.095551
v -121.481255 235.076324 -270.818573
v 96.560524 235.076324 271.095551
v 96.560524 235.076324 -270.818665
v 96.560524 278.992615 271.095551
v -121.481377 278.992615 271.095551
v 96.560524 278.992615 -270.818665
v -121.481255 278.992615 -270.818573
v -121.481377 241.866531 298.555756
v 120.207680 246.556976 298.555634
v -121.481377 272.202393 298.555756
v 120.207680 267.511963 298.555634
v -121.481255 241.866531 -298.278870
v 120.207680 246.556976 -298.278656
v 120.207680 267.511963 -298.278656
v -121.481255 272.202393 -298.278870
v -93.014122 312.309967 158.618988
v -61.162590 312.309967 175.440613
v -121.481438 312.309967 175.440613
v -121.481438 312.309967 158.618988
v -61.162590 312.309967 -175.163696
v -93.014000 312.309967 -158.342010
v -121.481316 312.309967 -158.342102
v -121.481316 312.309967 -175.163635
vt 0.871256 0.568616
vt 0.601266 0.568616
vt 0.601266 0.331992
vt 0.871256 0.331992
vt 0.264877 0.668564
vt 0.240767 0.715198
vt 0.238717 0.627420
vt 0.263786 0.627034
vt 0.013164 0.568617
vt 0.013164 0.331992
vt 0.009701 0.322608
vt 0.009701 0.052617
vt 0.597803 0.052617
vt 0.597803 0.322608
vt 0.834429 0.322608
vt 0.834429 0.052617
vt 0.754382 0.715075
vt 0.730584 0.668313
vt 0.732968 0.626132
vt 0.757804 0.626927
vt 0.030530 0.991062
vt 0.002810 0.637159
vt 0.047120 0.634386
vt 0.061120 0.989182
vt 0.992558 0.637980
vt 0.964668 0.991366
vt 0.934076 0.989487
vt 0.948250 0.635226
vt 0.954184 0.597622
vt 0.956145 0.025638
vt 0.976227 0.025707
vt 0.974266 0.597691
vt 0.930862 0.051869
vt 0.722852 0.031918
vt 0.725402 0.004929
vt 0.088689 0.632472
vt 0.102012 0.950973
vt 0.720915 0.589455
vt 0.929082 0.571219
vt 0.723280 0.616461
vt 0.893107 0.951330
vt 0.906880 0.633233
vn -0.000001 0.000000 -1.000000
vn -0.000001 0.000000 -1.000000
vn -0.000001 0.000000 -1.000000
vn -0.000001 0.000000 -1.000000
vn -0.000000 1.000000 -0.000000
vn -0.000000 1.000000 -0.000000
vn -0.000000 1.000000 -0.000000
vn -0.000000 1.000000 -0.000000
vn 0.000000 -1.000000 0.000000
vn 0.000000 -1.000000 0.000000
vn 0.000000 -1.000000 0.000000
vn 0.000000 -1.000000 0.000000
vn 1.000000 0.000000 0.000000
vn 1.000000 0.000000 0.000000
vn 1.000000 0.000000 0.000000
vn 1.000000 0.000000 0.000000
vn 0.000000 0.000000 1.000000
vn 0.000000 0.000000 1.000000
vn 0.000000 0.000000 1.000000
vn 0.000000 0.000000 1.000000
vn -0.000000 1.000000 -0.000000
vn 0.000000 1.000000 0.000000
vn 0.000000 1.000000 0.000000
vn -0.000000 1.000000 -0.000000
vn -0.000000 1.000000 -0.000000
vn -0.000000 1.000000 -0.000000
vn -0.000000 1.000000 -0.000000
vn -0.000000 1.000000 -0.000000
vn 0.000001 0.000000 1.000000
vn 0.000001 0.000000 1.000000
vn 0.000001 0.000000 1.000000
vn 0.000001 0.000000 1.000000
vn 0.000001 0.000000 -1.000000
vn 0.000001 0.000000 -1.000000
vn 0.000001 0.000000 -1.000000
vn 0.000001 0.000000 -1.000000
vn 1.000000 0.000000 0.000000
vn 1.000000 0.000000 0.000000
vn 1.000000 0.000000 0.000000
vn 1.000000 0.000000 0.000000
vn 0.329336 -0.941734 0.068376
vn 0.271895 -0.956799 0.103002
vn 0.009888 -0.969142 0.246305
vn 0.009888 -0.969142 0.246305
vn 0.009888 0.969142 0.246306
vn 0.009888 0.969142 0.246306
vn 0.271895 0.956799 0.103002
vn 0.329336 0.941734 0.068377
vn 0.009888 -0.969142 -0.246305
vn 0.009888 -0.969142 -0.246305
vn 0.271895 -0.956799 -0.103002
vn 0.329336 -0.941734 -0.068376
vn 0.329335 0.941734 -0.068377
vn 0.271895 0.956799 -0.103002
vn 0.009888 0.969142 -0.246305
vn 0.009888 0.969142 -0.246305
vn 0.329336 -0.941734 -0.068376
vn 0.271895 -0.956799 -0.103002
vn 0.271895 -0.956799 0.103002
vn 0.329336 -0.941734 0.068376
vn 0.329336 0.941734 0.068377
vn 0.271895 0.956799 0.103002
vn 0.271895 0.956799 -0.103002
vn 0.329335 0.941734 -0.068377
vn 0.000000 0.987809 0.155674
vn 0.000000 0.987809 0.155674
vn 0.000000 0.987809 0.155674
vn 0.000000 0.987809 0.155674
vn 0.000000 0.987808 -0.155674
vn 0.000000 0.987809 -0.155674
vn 0.000000 0.987808 -0.155674
vn 0.000000 0.987809 -0.155674
vn 0.206679 0.978409 0.000000
vn 0.206679 0.978409 0.000000
vn 0.206679 0.978409 0.000000
vn 0.206679 0.978409 0.000000
s off
usemtl Nachbarhaus_2_noMat:initialShadingGroup
f 6/1/1 8/4/2 4/3/3 2/2/4
f 21/5/5 24/8/6 23/7/7 22/6/8
f 4/3/9 3/10/10 1/9/11 2/2/12
f 8/11/13 7/14/14 3/13/15 4/12/16
f 5/15/17 1/16/18 3/13/19 7/14/20
f 25/17/21 28/20/22 27/19/23 26/18/24
f 25/17/25 26/18/26 21/5/27 22/6/28
f 14/21/29 16/24/30 15/23/31 13/22/32
f 17/25/33 20/28/34 19/27/35 18/26/36
f 18/29/37 19/32/38 16/31/39 14/30/40
f 7/33/41 14/30/42 13/35/43 5/34/44
f 10/36/45 15/23/46 16/24/47 9/37/48
f 6/38/49 17/40/50 18/29/51 8/39/52
f 11/41/53 19/27/54 20/28/55 12/42/56
f 8/39/57 18/29/58 14/30/59 7/33/60
f 9/37/61 16/24/62 19/27/63 11/41/64
f 9/37/65 22/6/66 23/7/67 10/36/68
f 12/42/69 28/20/70 25/17/71 11/41/72
f 11/41/73 25/17/74 22/6/75 9/37/76
v -121.481377 -13.710823 271.095551
v -121.481255 -13.710823 -270.818573
v 96.560524 -13.710823 271.095551
v 96.560524 -13.710823 -270.818665
v -121.481377 235.076324 271.095551
v -121.481255 235.076324 -270.818573
v 96.560524 235.076324 271.095551
v 96.560524 235.076324 -270.818665
v 96.560524 278.992615 271.095551
v -121.481377 278.992615 271.095551
v 96.560524 278.992615 -270.818665
v -121.481255 278.992615 -270.818573
v -121.481377 241.866531 298.555756
v 120.207680 246.556976 298.555634
v -121.481377 272.202393 298.555756
v 120.207680 267.511963 298.555634
v -121.481255 241.866531 -298.278870
v 120.207680 246.556976 -298.278656
v 120.207680 267.511963 -298.278656
v -121.481255 272.202393 -298.278870
v -93.014122 312.309967 158.618988
v -61.162590 312.309967 175.440613
v -121.481438 312.309967 175.440613
v -121.481438 312.309967 158.618988
v -61.162590 312.309967 -175.163696
v -93.014000 312.309967 -158.342010
v -121.481316 312.309967 -158.342102
v -121.481316 312.309967 -175.163635
vt 0.871256 0.568616
vt 0.601266 0.568616
vt 0.601266 0.331992
vt 0.871256 0.331992
vt 0.264877 0.668564
vt 0.240767 0.715198
vt 0.238717 0.627420
vt 0.263786 0.627034
vt 0.013164 0.568617
vt 0.013164 0.331992
vt 0.009701 0.322608
vt 0.009701 0.052617
vt 0.597803 0.052617
vt 0.597803 0.322608
vt 0.834429 0.322608
vt 0.834429 0.052617
vt 0.754382 0.715075
vt 0.730584 0.668313
vt 0.732968 0.626132
vt 0.757804 0.626927
vt 0.030530 0.991062
vt 0.002810 0.637159
vt 0.047120 0.634386
vt 0.061120 0.989182
vt 0.992558 0.637980
vt 0.964668 0.991366
vt 0.934076 0.989487
vt 0.948250 0.635226
vt 0.954184 0.597622
vt 0.956145 0.025638
vt 0.976227 0.025707
vt 0.974266 0.597691
vt 0.930862 0.051869
vt 0.722852 0.031918
vt 0.725402 0.004929
vt 0.088689 0.632472
vt 0.102012 0.950973
vt 0.720915 0.589455
vt 0.929082 0.571219
vt 0.723280 0.616461
vt 0.893107 0.951330
vt 0.906880 0.633233
vn -0.000001 0.000000 -1.000000
vn -0.000001 0.000000 -1.000000
vn -0.000001 0.000000 -1.000000
vn -0.000001 0.000000 -1.000000
vn -0.000000 1.000000 -0.000000
vn -0.000000 1.000000 -0.000000
vn -0.000000 1.000000 -0.000000
vn -0.000000 1.000000 -0.000000
vn 0.000000 -1.000000 0.000000
vn 0.000000 -1.000000 0.000000
vn 0.000000 -1.000000 0.000000
vn 0.000000 -1.000000 0.000000
vn 1.000000 0.000000 0.000000
vn 1.000000 0.000000 0.000000
vn 1.000000 0.000000 0.000000
vn 1.000000 0.000000 0.000000
vn 0.000000 0.000000 1.000000
vn 0.000000 0.000000 1.000000
vn 0.000000 0.000000 1.000000
vn 0.000000 0.000000 1.000000
vn -0.000000 1.000000 -0.000000
vn 0.000000 1.000000 0.000000
vn 0.000000 1.000000 0.000000
vn -0.000000 1.000000 -0.000000
vn -0.000000 1.000000 -0.000000
vn -0.000000 1.000000 -0.000000
vn -0.000000 1.000000 -0.000000
vn -0.000000 1.000000 -0.000000
vn 0.000001 0.000000 1.000000
vn 0.000001 0.000000 1.000000
vn 0.000001 0.000000 1.000000
vn 0.000001 0.000000 1.000000
vn 0.000001 0.000000 -1.000000
vn 0.000001 0.000000 -1.000000
vn 0.000001 0.000000 -1.000000
vn 0.000001 0.000000 -1.000000
vn 1.000000 0.000000 0.000000
vn 1.000000 0.000000 0.000000
vn 1.000000 0.000000 0.000000
vn 1.000000 0.000000 0.000000
vn 0.329336 -0.941734 0.068376
vn 0.271895 -0.956799 0.103002
vn 0.009888 -0.969142 0.246305
vn 0.009888 -0.969142 0.246305
vn 0.009888 0.969142 0.246306
vn 0.009888 0.969142 0.246306
vn 0.271895 0.956799 0.103002
vn 0.329336 0.941734 0.068377
vn 0.009888 -0.969142 -0.246305
vn 0.009888 -0.969142 -0.246305
vn 0.271895 -0.956799 -0.103002
vn 0.329336 -0.941734 -0.068376
vn 0.329335 0.941734 -0.068377
vn 0.271895 0.956799 -0.103002
vn 0.009888 0.969142 -0.246305
vn 0.009888 0.969142 -0.246305
vn 0.329336 -0.941734 -0.068376
vn 0.271895 -0.956799 -0.103002
vn 0.271895 -0.956799 0.103002
vn 0.329336 -0.941734 0.068376
vn 0.329336 0.941734 0.068377
vn 0.271895 0.956799 0.103002
vn 0.271895 0.956799 -0.103002
vn 0.329335 0.941734 -0.068377
vn 0.000000 0.987809 0.155674
vn 0.000000 0.987809 0.155674
vn 0.000000 0.987809 0.155674
vn 0.000000 0.987809 0.155674
vn 0.000000 0.987808 -0.155674
vn 0.000000 0.987809 -0.155674
vn 0.000000 0.987808 -0.155674
vn 0.000000 0.987809 -0.155674
vn 0.206679 0.978409 0.000000
vn 0.206679 0.978409 0.000000
vn 0.206679 0.978409 0.000000
vn 0.206679 0.978409 0.000000
s off
f 34/43/77 36/46/78 32/45/79 30/44/80
f 49/47/81 52/50/82 51/49/83 50/48/84
f 32/45/85 31/52/86 29/51/87 30/44/88
f 36/53/89 35/56/90 31/55/91 32/54/92
f 33/57/93 29/58/94 31/55/95 35/56/96
f 53/59/97 56/62/98 55/61/99 54/60/100
f 53/59/101 54/60/102 49/47/103 50/48/104
f 42/63/105 44/66/106 43/65/107 41/64/108
f 45/67/109 48/70/110 47/69/111 46/68/112
f 46/71/113 47/74/114 44/73/115 42/72/116
f 35/75/117 42/72/118 41/77/119 33/76/120
f 38/78/121 43/65/122 44/66/123 37/79/124
f 34/80/125 45/82/126 46/71/127 36/81/128
f 39/83/129 47/69/130 48/70/131 40/84/132
f 36/81/133 46/71/134 42/72/135 35/75/136
f 37/79/137 44/66/138 47/69/139 39/83/140
f 37/79/141 50/48/142 51/49/143 38/78/144
f 40/84/145 56/62/146 53/59/147 39/83/148
f 39/83/149 53/59/150 50/48/151 37/79/152
