# This file uses centimeters as units for non-parametric coordinates.

mtllib Gehweg_Ecke.mtl
g default
v 44.310059 0.000000 -43.681519
v 163.771973 16.153063 -43.681519
v 55.391174 16.153063 -43.681519
v 44.310059 16.153061 -43.681519
v 194.310059 0.000000 -43.681519
v 179.618652 16.153061 -43.681519
v 216.351929 0.000000 -43.681519
v 44.310059 0.000000 -30.087835
v 184.692688 0.000000 16.592140
v 170.730835 16.153065 12.020181
v 155.671021 16.153065 7.088701
v 54.840942 16.153065 -26.639395
v 44.310059 16.153065 -30.087835
v 44.310059 0.000000 -17.844185
v 156.795837 0.000000 70.879837
v 144.950012 16.153065 62.189972
v 132.172668 16.153065 52.816757
v 53.244873 16.153065 -11.289778
v 44.310059 16.153065 -17.844185
v 26.059935 0.000000 0.000001
v 113.389954 0.000000 113.790390
v 104.836609 16.153065 101.845612
v 95.610657 16.153065 88.961533
v 32.511353 16.153065 9.009454
v 26.059935 16.153065 0.000001
v 13.744872 0.000000 0.000001
v 58.785645 0.000000 141.062302
v 54.374268 16.153065 127.048843
v 49.615967 16.153065 111.933441
v 17.072203 16.153065 10.569764
v 13.744872 16.153065 0.000001
v -0.000001 0.000000 0.000001
v -0.000001 0.000000 150.000000
v -0.000001 16.153065 135.308594
v -0.000001 16.153065 119.461914
v -0.000001 16.153065 11.081117
v -0.000001 16.153065 0.000001
v 205.640076 0.000000 23.451571
v 174.568420 0.000000 83.917465
v 126.222717 0.000000 131.711426
v 65.404236 0.000000 162.087021
v -0.000001 0.000000 172.041870
vt 0.989589 0.077044
vt 0.783895 0.077044
vt 0.982859 0.186048
vt 0.773536 0.187272
vt 0.975415 0.234633
vt 0.815299 0.234586
vt 0.007350 0.987649
vt 0.083685 0.521299
vt 0.157513 0.530656
vt 0.233941 0.987351
vt 0.332063 0.477075
vt 0.260199 0.477907
vt 0.259213 0.389684
vt 0.327299 0.366730
vt 0.050456 0.480012
vt 0.049572 0.391726
vt 0.594862 0.077656
vt 0.600896 0.187049
vt 0.608193 0.235071
vt 0.362993 0.552303
vt 0.458125 0.985470
vt 0.258618 0.310133
vt 0.316662 0.267385
vt 0.048804 0.312244
vt 0.593566 0.077826
vt 0.405386 0.078275
vt 0.586691 0.187580
vt 0.412785 0.187995
vt 0.579108 0.235845
vt 0.420599 0.236223
vt 0.611282 0.492491
vt 0.565205 0.912376
vt 0.444668 0.912923
vt 0.397707 0.492425
vt 0.690814 0.266923
vt 0.759489 0.277902
vt 0.760321 0.438093
vt 0.691640 0.449027
vt 0.962241 0.276850
vt 0.963073 0.437037
vt 0.404032 0.078209
vt 0.200800 0.075144
vt 0.397091 0.187225
vt 0.192197 0.185526
vt 0.389551 0.235796
vt 0.229454 0.235454
vt 0.552579 0.988326
vt 0.644525 0.554070
vt 0.707825 0.530116
vt 0.781090 0.987257
vt 0.632161 0.480493
vt 0.573135 0.439247
vt 0.572628 0.359323
vt 0.641215 0.380516
vt 0.363489 0.440106
vt 0.363133 0.360183
vt 0.016641 0.078361
vt 0.023889 0.187677
vt 0.031513 0.235649
vt 0.937574 0.523231
vt 0.999624 0.991340
vt 0.572377 0.270162
vt 0.644221 0.270001
vt 0.362794 0.271017
vt 0.415661 0.011211
vt 0.205777 0.007266
vt 0.004828 0.012040
vt 0.790093 0.009282
vt 0.583535 0.011245
vt 0.604113 0.010692
vt 0.394518 0.011193
vt 1.001106 0.010031
vt 0.793529 0.008250
vt 0.800180 0.075969
vt 0.214640 0.076797
vt 0.208011 0.009060
vt 0.363133 0.360183
vt 0.572628 0.359323
vt 0.641215 0.380516
vt 0.863447 0.530529
vt 0.776597 0.989087
vt 0.188443 0.234012
vt 0.224916 0.187036
vt 0.049572 0.391726
vt 0.259213 0.389684
vt 0.327299 0.366730
vt 0.300076 0.528236
vt 0.231439 0.988580
vt 0.768926 0.235676
vt 0.810728 0.186179
vn 0.683032 0.695300 0.223665
vn 0.714040 0.690772 0.113933
vn 0.987508 0.000000 0.157568
vn 0.950345 0.000000 0.311200
vn 0.000000 1.000000 0.000000
vn 0.000000 1.000000 0.000000
vn 0.000000 1.000000 0.000000
vn 0.000000 1.000000 0.000000
vn 0.000000 1.000000 0.000000
vn 0.000000 1.000000 0.000000
vn 0.000000 1.000000 0.000000
vn 0.000000 1.000000 0.000000
vn 0.000000 1.000000 0.000000
vn 0.000000 1.000000 0.000000
vn 0.000000 1.000000 0.000000
vn 0.000000 1.000000 0.000000
vn -1.000000 0.000000 0.000000
vn -1.000000 0.000000 0.000000
vn -1.000000 0.000000 0.000000
vn -1.000000 0.000000 0.000000
vn 0.579511 0.695300 0.425118
vn 0.683032 0.695300 0.223665
vn 0.950345 0.000000 0.311200
vn 0.806310 0.000000 0.591494
vn 0.000000 1.000000 0.000000
vn 0.000000 1.000000 0.000000
vn 0.000000 1.000000 0.000000
vn 0.000000 1.000000 0.000000
vn 0.000000 1.000000 0.000000
vn 0.000000 1.000000 0.000000
vn 0.000000 1.000000 0.000000
vn 0.000000 1.000000 0.000000
vn 0.000000 1.000000 0.000000
vn 0.000000 1.000000 0.000000
vn 0.000000 1.000000 0.000000
vn 0.000000 1.000000 0.000000
vn -1.000000 0.000000 0.000000
vn -1.000000 0.000000 0.000000
vn -0.855008 0.000000 -0.518615
vn -0.855008 0.000000 -0.518615
vn 0.418438 0.695300 0.584352
vn 0.579511 0.695300 0.425118
vn 0.806310 0.000000 0.591494
vn 0.582200 0.000000 0.813046
vn 0.000000 1.000000 0.000000
vn 0.000000 1.000000 0.000000
vn 0.000000 1.000000 0.000000
vn 0.000000 1.000000 0.000000
vn 0.000000 1.000000 0.000000
vn 0.000000 1.000000 0.000000
vn 0.000000 1.000000 0.000000
vn 0.000000 1.000000 0.000000
vn 0.000000 1.000000 0.000000
vn 0.000000 1.000000 0.000000
vn 0.000000 1.000000 0.000000
vn 0.000000 1.000000 0.000000
vn -0.855008 0.000000 -0.518615
vn -0.855008 0.000000 -0.518615
vn -0.504177 0.000000 -0.863601
vn -0.504177 0.000000 -0.863601
vn 0.218517 0.695343 0.684652
vn 0.418438 0.695300 0.584352
vn 0.582200 0.000000 0.813046
vn 0.304077 0.000000 0.952647
vn 0.000000 1.000000 0.000000
vn 0.000000 1.000000 0.000000
vn 0.000000 1.000000 0.000000
vn 0.000000 1.000000 0.000000
vn 0.000000 1.000000 0.000000
vn 0.000000 1.000000 0.000000
vn 0.000000 1.000000 0.000000
vn 0.000000 1.000000 0.000000
vn 0.000000 1.000000 0.000000
vn 0.000000 1.000000 0.000000
vn 0.000000 1.000000 0.000000
vn 0.000000 1.000000 0.000000
vn -0.504177 0.000000 -0.863601
vn -0.504177 0.000000 -0.863601
vn 0.000000 0.000000 -1.000000
vn 0.000000 0.000000 -1.000000
vn 0.150183 0.000000 0.988658
vn 0.108595 0.691097 0.714558
vn 0.218517 0.695343 0.684652
vn 0.304077 0.000000 0.952647
vn 0.000000 1.000000 0.000000
vn 0.000000 1.000000 0.000000
vn 0.000000 1.000000 0.000000
vn 0.000000 1.000000 0.000000
vn 0.000000 1.000000 0.000000
vn 0.000000 1.000000 0.000000
vn 0.000000 1.000000 0.000000
vn 0.000000 1.000000 0.000000
vn 0.000000 1.000000 0.000000
vn 0.000000 1.000000 0.000000
vn 0.000000 1.000000 0.000000
vn 0.000000 1.000000 0.000000
vn 0.000000 0.000000 -1.000000
vn 0.000000 0.000000 -1.000000
vn 0.000000 0.000000 -1.000000
vn 0.000000 0.000000 -1.000000
vn 0.000000 1.000000 0.000000
vn 0.000000 1.000000 0.000000
vn 0.000000 1.000000 0.000000
vn 0.000000 1.000000 0.000000
vn 0.000000 1.000000 0.000000
vn 0.000000 1.000000 0.000000
vn 0.000000 1.000000 0.000000
vn 0.000000 1.000000 0.000000
vn 0.000000 1.000000 0.000000
vn 0.000000 1.000000 0.000000
vn 0.000000 1.000000 0.000000
vn 0.000000 1.000000 0.000000
vn 0.000000 1.000000 0.000000
vn 0.000000 1.000000 0.000000
vn 0.000000 1.000000 0.000000
vn 0.000000 1.000000 0.000000
vn 0.000000 1.000000 0.000000
vn 0.000000 1.000000 0.000000
vn 0.000000 1.000000 0.000000
vn 0.000000 1.000000 0.000000
s off
g Gehweg_Ecke:Gehweg_Ecke1
usemtl Gehweg_Ecke:pCube3SG
f 9/74/1 5/1/2 6/3/3 10/90/4
f 6/3/5 2/5/6 11/6/7 10/90/8
f 2/7/9 3/8/10 12/9/11 11/88/12
f 3/11/13 4/12/14 13/85/15 12/86/16
f 4/12/17 1/15/18 8/16/19 13/85/20
f 15/17/21 9/2/22 10/4/23 16/18/24
f 10/4/25 11/89/26 17/19/27 16/18/28
f 11/10/29 12/87/30 18/20/31 17/21/32
f 12/14/33 13/13/34 19/22/35 18/23/36
f 13/13/37 8/84/38 14/24/39 19/22/40
f 21/26/41 15/25/42 16/27/43 22/28/44
f 16/27/45 17/29/46 23/30/47 22/28/48
f 17/31/49 18/32/50 24/33/51 23/34/52
f 18/35/53 19/36/54 25/37/55 24/38/56
f 19/36/57 14/39/58 20/40/59 25/37/60
f 27/75/61 21/41/62 22/43/63 28/83/64
f 22/43/65 23/45/66 29/46/67 28/83/68
f 23/47/69 24/48/70 30/49/71 29/81/72
f 24/51/73 25/52/74 31/78/75 30/79/76
f 25/52/77 20/55/78 26/56/79 31/78/80
f 34/58/81 33/57/82 27/42/83 28/44/84
f 28/44/85 29/82/86 35/59/87 34/58/88
f 29/50/89 30/80/90 36/60/91 35/61/92
f 30/54/93 31/53/94 37/62/95 36/63/96
f 31/53/97 26/77/98 32/64/99 37/62/100
f 40/65/101 21/41/102 27/75/103 41/76/104
f 41/66/105 27/42/106 33/57/107 42/67/108
f 38/68/109 9/2/110 15/17/111 39/69/112
f 39/70/113 15/25/114 21/26/115 40/71/116
f 7/72/117 5/1/118 9/74/119 38/73/120
