# This file uses centimeters as units for non-parametric coordinates.

mtllib Gehweg_Gerade.mtl
g default
v -150.000015 0.000000 -0.000009
v -150.000015 16.153063 119.461906
v 0.000001 0.000000 -0.000009
v 0.000001 16.153063 119.461906
v 0.000001 16.153063 11.081107
v -150.000015 16.153063 11.081107
v -150.000015 16.153063 -0.000009
v 0.000001 16.153063 -0.000009
v 0.000001 0.000000 149.999985
v -150.000015 0.000000 149.999985
v -150.000015 16.153063 135.308578
v 0.000001 16.153063 135.308578
v 0.000001 0.000000 172.041855
v -150.000015 0.000000 172.041855
vt 0.010171 0.495239
vt 0.667720 0.494722
vt 0.668093 0.969827
vt 0.010545 0.970343
vt 0.677591 0.374723
vt 0.020042 0.375208
vt 0.770517 0.872359
vt 0.714629 0.872403
vt 0.714034 0.115869
vt 0.769922 0.115824
vt 0.932860 0.115696
vt 0.933455 0.872231
vt 0.019876 0.149364
vt 0.677425 0.148880
vt 0.677476 0.218346
vt 0.019927 0.218831
vt 0.677663 0.471347
vt 0.020114 0.471832
vn 0.000000 1.000000 0.000000
vn 0.000000 1.000000 0.000000
vn 0.000000 1.000000 0.000000
vn 0.000000 1.000000 0.000000
vn 0.000000 0.000000 1.000000
vn 0.000000 0.695300 0.718719
vn 0.000000 0.695300 0.718719
vn 0.000000 0.000000 1.000000
vn 0.000000 1.000000 0.000000
vn 0.000000 1.000000 0.000000
vn -0.000000 0.000000 -1.000000
vn -0.000000 0.000000 -1.000000
vn -0.000000 0.000000 -1.000000
vn -0.000000 0.000000 -1.000000
vn 0.000000 1.000000 0.000000
vn 0.000000 1.000000 0.000000
vn 0.000000 1.000000 0.000000
vn 0.000000 1.000000 0.000000
vn 0.000000 1.000000 0.000000
vn 0.000000 1.000000 0.000000
vn 0.000000 1.000000 0.000000
vn 0.000000 1.000000 0.000000
vn 0.000000 1.000000 0.000000
vn 0.000000 1.000000 0.000000
s 1
g Gehweg_Gerade1:Gehweg_Gerade1
usemtl Gehweg_Gerade1:pCube36SG
f 5/1/1 6/2/2 2/3/3 4/4/4
s off
f 11/15/5 10/5/6 9/6/7 12/16/8
s 1
f 7/7/9 6/8/2 5/9/1 8/10/10
s off
f 3/11/11 1/12/12 7/7/13 8/10/14
s 1
f 4/13/4 2/14/3 11/15/15 12/16/16
s off
f 9/6/17 10/5/18 14/17/19 13/18/20
